HIERARCHY
ROOT Hips
{
	OFFSET 0.00000 0.00000 0.00000
	CHANNELS 6 Xposition Yposition Zposition Zrotation Yrotation Xrotation 
	JOINT LHipJoint
	{
		OFFSET 0 0 0
		CHANNELS 3 Zrotation Yrotation Xrotation
		JOINT LeftUpLeg
		{
			OFFSET 1.53139 -1.83434 0.76626
			CHANNELS 3 Zrotation Yrotation Xrotation
			JOINT LeftLeg
			{
				OFFSET 2.56112 -7.03663 0.00000
				CHANNELS 3 Zrotation Yrotation Xrotation
				JOINT LeftFoot
				{
					OFFSET 2.59983 -7.14299 0.00000
					CHANNELS 3 Zrotation Yrotation Xrotation
					JOINT LeftToeBase
					{
						OFFSET 0.13742 -0.37757 2.00054
						CHANNELS 3 Zrotation Yrotation Xrotation
						End Site
						{
							OFFSET 0.00000 -0.00000 1.02897
						}
					}
				}
			}
		}
	}
	JOINT RHipJoint
	{
		OFFSET 0 0 0
		CHANNELS 3 Zrotation Yrotation Xrotation
		JOINT RightUpLeg
		{
			OFFSET -1.40122 -1.83435 0.76627
			CHANNELS 3 Zrotation Yrotation Xrotation
			JOINT RightLeg
			{
				OFFSET -2.54052 -6.98003 0.00000
				CHANNELS 3 Zrotation Yrotation Xrotation
				JOINT RightFoot
				{
					OFFSET -2.63179 -7.23079 0.00000
					CHANNELS 3 Zrotation Yrotation Xrotation
					JOINT RightToeBase
					{
						OFFSET -0.24131 -0.66299 2.03908
						CHANNELS 3 Zrotation Yrotation Xrotation
						End Site
						{
							OFFSET -0.00000 -0.00000 1.07391
						}
					}
				}
			}
		}
	}
	JOINT LowerBack
	{
		OFFSET 0 0 0
		CHANNELS 3 Zrotation Yrotation Xrotation
		JOINT Spine
		{
			OFFSET 0.01174 2.10302 -0.29778
			CHANNELS 3 Zrotation Yrotation Xrotation
			JOINT Spine1
			{
				OFFSET 0.00772 2.13227 -0.01247
				CHANNELS 3 Zrotation Yrotation Xrotation
				JOINT Neck
				{
					OFFSET 0 0 0
					CHANNELS 3 Zrotation Yrotation Xrotation
					JOINT Neck1
					{
						OFFSET -0.09219 1.60848 0.31481
						CHANNELS 3 Zrotation Yrotation Xrotation
						JOINT Head
						{
							OFFSET 0.13974 1.65456 -0.31134
							CHANNELS 3 Zrotation Yrotation Xrotation
							End Site
							{
								OFFSET 0.04742 1.69515 -0.14578
							}
						}
					}
				}
				JOINT LeftShoulder
				{
					OFFSET 0 0 0
					CHANNELS 3 Zrotation Yrotation Xrotation
					JOINT LeftArm
					{
						OFFSET 3.24909 1.02882 -0.23993
						CHANNELS 3 Zrotation Yrotation Xrotation
						JOINT LeftForeArm
						{
							OFFSET 5.32955 -0.00000 -0.00000
							CHANNELS 3 Zrotation Yrotation Xrotation
							JOINT LeftHand
							{
								OFFSET 3.69232 -0.00000 -0.00000
								CHANNELS 3 Zrotation Yrotation Xrotation
								JOINT LeftFingerBase
								{
									OFFSET 0 0 0
									CHANNELS 3 Zrotation Yrotation Xrotation
									JOINT LeftHandIndex1
									{
										OFFSET 0.53660 -0.00000 -0.00000
										CHANNELS 3 Zrotation Yrotation Xrotation
										End Site
										{
											OFFSET 0.43262 -0.00000 -0.00000
										}
									}
								}
								JOINT LThumb
								{
									OFFSET 0 0 0
									CHANNELS 3 Zrotation Yrotation Xrotation
									End Site
									{
										OFFSET 0.43922 -0.00000 0.43922
									}
								}
							}
						}
					}
				}
				JOINT RightShoulder
				{
					OFFSET 0 0 0
					CHANNELS 3 Zrotation Yrotation Xrotation
					JOINT RightArm
					{
						OFFSET -3.21387 0.93002 -0.34594
						CHANNELS 3 Zrotation Yrotation Xrotation
						JOINT RightForeArm
						{
							OFFSET -5.23431 -0.00000 0.00000
							CHANNELS 3 Zrotation Yrotation Xrotation
							JOINT RightHand
							{
								OFFSET -3.55301 -0.00000 -0.00000
								CHANNELS 3 Zrotation Yrotation Xrotation
								JOINT RightFingerBase
								{
									OFFSET 0 0 0
									CHANNELS 3 Zrotation Yrotation Xrotation
									JOINT RightHandIndex1
									{
										OFFSET -0.77252 -0.00000 -0.00000
										CHANNELS 3 Zrotation Yrotation Xrotation
										End Site
										{
											OFFSET -0.62283 -0.00000 -0.00000
										}
									}
								}
								JOINT RThumb
								{
									OFFSET 0 0 0
									CHANNELS 3 Zrotation Yrotation Xrotation
									End Site
									{
										OFFSET -0.63234 -0.00000 0.63234
									}
								}
							}
						}
					}
				}
			}
		}
	}
}
MOTION
Frames: 15
Frame Time: .0083333
-0.1643 18.1585 2.7477 0 0 0 0 0 0 -21 0 0 0 0 0 0 0 0 0 0 0 0 0 0 21 0 0 0 0 0 0 0 0 0 0 0 0 0 0 0 0 0 0 0 0 0 0 -16 0 0 21 0 0 11 0 0 0 -8 0 0 0 0 0 0 0 0 0 0 0 0 0 0 0 0 0 0 0 0 8 0 0 0 0 0 0 0 0 0 0 0 0 0 0 0 0 0
-0.1643 18.1585 2.7477 0.8237 -4.6860 1.7555 0.0000 0.0000 0.0000 -22.6385 2.9397 2.5054 0.0893 1.9269 5.3037 0.0869 0.5828 -5.8116 0.1527 -2.5180 -6.9397 0.0000 0.0000 0.0000 22.4766 3.7965 -3.4631 -1.3061 -7.2397 20.4275 -0.5092 -2.7979 -14.7902 -0.0001 -0.0620 0.1704 -2.1948 -0.6577 4.8431 -0.2065 -1.0381 -2.0543 1.1100 -0.4496 -4.8089 -16.9332 -12.4131 -14.9562 13.7741 -17.3579 24.5266 5.0187 -7.8195 13.5789 -0.0000 0.0000 0.0000 -89.7271 6.0464 19.4623 16.9148 -26.7453 -4.0489 -0.0000 -0.0000 7.2455 17.5747 23.1080 7.0859 -7.1250 0.0000 -0.0000 -12.0636 53.6887 -2.6067 -0.0000 0.0000 0.0000 91.0916 -2.8487 21.9362 -15.6459 25.0382 -3.4947 0.0000 0.0000 8.4011 -14.3621 8.6977 -2.2174 7.1250 -0.0000 -0.0000 9.0204 -21.0523 5.2422
-0.1655 18.1561 2.7468 0.8015 -4.6428 1.7417 0.0000 0.0000 0.0000 -22.6201 2.8311 2.3346 0.1025 2.0642 5.6831 0.0924 0.5560 -5.9721 0.1563 -2.5477 -7.0219 0.0000 0.0000 0.0000 22.5155 3.7785 -3.4327 -1.2945 -7.2087 20.3353 -0.5128 -2.8530 -14.8682 -0.0015 0.2518 -0.6917 -2.1723 -0.6604 4.8333 -0.1908 -1.0388 -2.0285 1.1133 -0.4510 -4.7765 -16.9565 -12.4125 -14.9595 13.8111 -17.3591 24.5099 5.0364 -7.8180 13.5801 -0.0000 -0.0000 0.0000 -89.7505 5.9555 19.3080 16.8767 -26.6950 -4.0318 -0.0000 -0.0000 7.5565 17.7363 23.2257 7.1887 -7.1250 0.0000 -0.0000 -11.9524 53.8367 -2.6256 -0.0000 -0.0000 0.0000 91.0683 -2.8351 21.8859 -15.5918 24.9641 -3.4719 0.0000 0.0000 8.4761 -14.4058 8.6225 -2.2054 7.1250 -0.0000 -0.0000 8.9917 -21.1269 5.2098
-0.1659 18.1549 2.7471 0.8026 -4.5990 1.7357 0.0000 0.0000 0.0000 -22.6190 2.7787 2.3189 0.1058 2.0970 5.7737 0.0947 0.5555 -6.0437 0.1606 -2.5821 -7.1172 0.0000 0.0000 0.0000 22.5185 3.7458 -3.4243 -1.2931 -7.2051 20.3243 -0.5157 -2.8534 -14.9063 -0.0007 0.1709 -0.4695 -2.1698 -0.6557 4.8409 -0.1827 -1.0325 -2.0401 1.1200 -0.4475 -4.7931 -17.0367 -12.3923 -14.8870 13.9112 -17.3505 24.5010 5.0947 -7.8148 13.5811 -0.0000 -0.0000 0.0000 -89.7580 5.9839 19.3193 16.8722 -26.6890 -4.0298 -0.0000 -0.0000 7.5568 17.5519 23.4342 7.1695 -7.1250 0.0000 -0.0000 -12.2298 54.0106 -2.7402 -0.0000 -0.0000 0.0000 91.0324 -2.9361 21.8924 -15.5988 24.9736 -3.4748 0.0000 0.0000 8.4418 -14.3699 8.4430 -2.1542 7.1250 -0.0000 -0.0000 9.0238 -21.3112 5.1907
-0.1672 18.1552 2.7455 0.7847 -4.5302 1.8019 0.0000 0.0000 0.0000 -22.5996 2.6612 2.2063 0.1102 2.1406 5.8944 0.0964 0.5596 -6.0951 0.1712 -2.6652 -7.3479 0.0000 0.0000 0.0000 22.5581 3.7917 -3.4729 -1.2889 -7.1936 20.2903 -0.5091 -2.9772 -14.8939 -0.0013 0.2358 -0.6479 -2.1679 -0.6535 4.8387 -0.1689 -1.0297 -2.1004 1.1335 -0.4448 -4.8546 -17.0425 -12.3674 -14.7771 13.9287 -17.3301 24.4641 5.1116 -7.8107 13.5416 0.0000 0.0000 0.0000 -89.7491 6.1052 19.4386 16.8895 -26.7119 -4.0376 -0.0000 -0.0000 7.2183 16.9796 24.1433 7.1189 -7.1250 0.0000 -0.0000 -13.1332 54.6078 -3.1406 0.0000 0.0000 0.0000 91.0033 -3.0378 21.8754 -15.5769 24.9436 -3.4656 0.0000 0.0000 8.3640 -14.4181 8.4237 -2.1569 7.1250 -0.0000 -0.0000 8.9898 -21.3286 5.1671
-0.1691 18.1558 2.7432 0.8321 -4.4668 1.8442 0.0000 0.0000 0.0000 -22.6446 2.5686 2.1488 0.1114 2.1523 5.9267 0.0961 0.5614 -6.0868 0.1680 -2.6405 -7.2793 0.0000 0.0000 0.0000 22.5167 3.8036 -3.5118 -1.2870 -7.1885 20.2751 -0.5073 -3.0255 -14.8996 -0.0023 0.3094 -0.8501 -2.2430 -0.6461 4.8281 -0.1702 -1.0247 -2.1031 1.1737 -0.4400 -4.8504 -16.9557 -12.3835 -14.8881 13.8309 -17.3348 24.5166 5.0537 -7.8088 13.5658 0.0000 0.0000 0.0000 -89.7409 6.1278 19.8262 16.7976 -26.5901 -3.9963 -0.0000 -0.0000 5.8111 17.8289 23.0178 7.1679 -7.1250 0.0000 -0.0000 -11.7693 53.6455 -2.5292 0.0000 0.0000 0.0000 91.0030 -3.0083 21.7098 -15.5152 24.8589 -3.4396 0.0000 0.0000 8.4891 -14.4764 8.5077 -2.1874 7.1250 -0.0000 -0.0000 8.9449 -21.2405 5.1587
-0.1702 18.1573 2.7420 0.8072 -4.4215 1.8392 0.0000 0.0000 0.0000 -22.6077 2.5217 2.1501 0.1123 2.1603 5.9489 0.0968 0.5412 -6.0994 0.1703 -2.6581 -7.3283 0.0000 0.0000 0.0000 22.5503 3.8190 -3.4740 -1.2838 -7.1801 20.2499 -0.5037 -3.0662 -14.8771 -0.0004 0.1318 -0.3620 -2.2347 -0.6496 4.8802 -0.1461 -1.0292 -2.1087 1.1952 -0.4416 -4.8855 -16.8966 -12.4028 -15.0264 13.6781 -17.3281 24.6525 4.9814 -7.8081 13.6246 0.0000 0.0000 0.0000 -89.7378 6.1032 19.6620 16.8160 -26.6145 -4.0045 -0.0000 -0.0000 6.6010 17.2023 24.1911 7.2303 -7.1250 0.0000 -0.0000 -12.9300 54.6982 -3.1194 0.0000 0.0000 0.0000 90.9883 -3.0400 21.5904 -15.4715 24.7989 -3.4213 0.0000 0.0000 8.6233 -14.4753 8.5970 -2.2100 7.1250 -0.0000 -0.0000 8.9426 -21.1496 5.1760
-0.1704 18.1578 2.7411 0.7615 -4.3844 1.8187 0.0000 0.0000 0.0000 -22.5482 2.5026 2.1990 0.1105 2.1437 5.9030 0.0956 0.5447 -6.0642 0.1732 -2.6807 -7.3910 0.0000 0.0000 0.0000 22.6139 3.8202 -3.4564 -1.2831 -7.1781 20.2441 -0.4944 -3.1513 -14.8080 -0.0005 0.1457 -0.4004 -2.1804 -0.6445 4.9143 -0.1291 -1.0186 -2.0970 1.1818 -0.4378 -4.8935 -16.8454 -12.4222 -15.0762 13.5580 -17.3290 24.6918 4.9233 -7.8136 13.6309 0.0000 0.0000 0.0000 -89.7345 6.0566 20.0376 16.7256 -26.4946 -3.9641 -0.0000 -0.0000 5.5334 18.0200 24.7199 7.7468 -7.1250 0.0000 -0.0000 -12.3469 55.3849 -3.1829 0.0000 0.0000 0.0000 90.9623 -3.0601 21.5579 -15.4335 24.7465 -3.4053 0.0000 0.0000 8.5459 -14.6054 8.9024 -2.3092 7.1250 -0.0000 -0.0000 8.8393 -20.8324 5.1788
-0.1697 18.1591 2.7407 0.7845 -4.3390 1.8192 0.0000 0.0000 0.0000 -22.5744 2.4658 2.2320 0.1086 2.1247 5.8504 0.0938 0.5547 -6.0157 0.1632 -2.6030 -7.1755 0.0000 0.0000 0.0000 22.5836 3.7606 -3.4963 -1.2835 -7.1791 20.2472 -0.4908 -3.1647 -14.7695 -0.0024 0.3163 -0.8689 -2.1771 -0.6348 4.9128 -0.1432 -1.0056 -2.0773 1.1640 -0.4320 -4.8729 -16.7965 -12.4340 -15.1660 13.5255 -17.3400 24.7298 4.8969 -7.8121 13.6582 -0.0000 -0.0000 0.0000 -89.7227 6.0044 20.3344 16.6618 -26.4098 -3.9357 -0.0000 -0.0000 4.6969 18.2814 25.3127 8.0397 -7.1250 0.0000 -0.0000 -12.3665 56.0287 -3.3824 -0.0000 -0.0000 0.0000 90.9666 -3.0523 21.5091 -15.4114 24.7162 -3.3961 0.0000 0.0000 8.4722 -14.7028 9.0919 -2.3743 7.1250 -0.0000 -0.0000 8.7638 -20.6345 5.1731
-0.1697 18.1607 2.7389 0.7828 -4.3052 1.8509 0.0000 0.0000 0.0000 -22.5725 2.4204 2.2103 0.1083 2.1216 5.8419 0.0936 0.5540 -6.0078 0.1728 -2.6781 -7.3838 0.0000 0.0000 0.0000 22.5811 3.7802 -3.4941 -1.2840 -7.1806 20.2515 -0.5010 -3.1182 -14.8732 -0.0006 0.1580 -0.4342 -2.1611 -0.6319 4.8629 -0.1458 -0.9991 -2.0553 1.1508 -0.4302 -4.8220 -16.7737 -12.4225 -15.1788 13.5519 -17.3321 24.7108 4.9048 -7.8031 13.6522 0.0000 -0.0000 0.0000 -89.7180 5.9419 20.3245 16.6159 -26.3487 -3.9154 -0.0000 -0.0000 4.7071 18.3766 25.0829 8.0163 -7.1250 0.0000 -0.0000 -12.1549 55.8188 -3.2611 0.0000 -0.0000 0.0000 90.9693 -2.9942 21.4344 -15.3441 24.6233 -3.3680 0.0000 0.0000 8.5713 -14.6965 9.1172 -2.3798 7.1250 -0.0000 -0.0000 8.7676 -20.6089 5.1806
-0.1702 18.1623 2.7372 0.7611 -4.2572 1.8416 0.0000 0.0000 0.0000 -22.5465 2.3586 2.1789 0.1119 2.1565 5.9384 0.0950 0.5582 -6.0542 0.1796 -2.7301 -7.5281 0.0000 0.0000 0.0000 22.6056 3.7523 -3.4489 -1.2817 -7.1745 20.2333 -0.5096 -3.0717 -14.9560 -0.0000 -0.0091 0.0251 -2.1473 -0.6416 4.8294 -0.1298 -1.0091 -2.0220 1.1597 -0.4362 -4.7678 -16.7977 -12.4051 -15.1016 13.5869 -17.3184 24.6806 4.9288 -7.7999 13.6279 -0.0000 0.0000 0.0000 -89.7310 5.9495 20.3342 16.6298 -26.3672 -3.9215 -0.0000 -0.0000 4.6313 18.5039 24.7201 7.9671 -7.1250 0.0000 -0.0000 -11.8492 55.4817 -3.0799 -0.0000 0.0000 0.0000 90.9522 -2.9525 21.4168 -15.2797 24.5343 -3.3412 0.0000 0.0000 8.6628 -14.7425 8.9217 -2.3369 7.1250 -0.0000 -0.0000 8.7405 -20.8061 5.1248
-0.1711 18.1599 2.7371 0.7652 -4.2100 1.8239 0.0000 0.0000 0.0000 -22.5479 2.2941 2.1396 0.1173 2.2077 6.0801 0.0982 0.5318 -6.1373 0.1816 -2.7451 -7.5700 0.0000 0.0000 0.0000 22.6167 3.7463 -3.4330 -1.2784 -7.1655 20.2067 -0.5051 -3.1660 -14.9551 -0.0004 0.1328 -0.3650 -2.1864 -0.6535 4.8154 -0.0990 -1.0256 -2.0121 1.2147 -0.4430 -4.7478 -16.8603 -12.3925 -15.0333 13.6029 -17.3003 24.6916 4.9527 -7.7994 13.6237 0.0000 0.0000 0.0000 -89.7889 5.9743 20.2900 16.6275 -26.3641 -3.9205 -0.0000 -0.0000 4.6276 18.5243 24.4787 7.9042 -7.1250 0.0000 -0.0000 -11.7148 55.2439 -2.9762 0.0000 0.0000 0.0000 90.8904 -2.9295 21.3950 -15.2011 24.4255 -3.3086 0.0000 0.0000 8.7724 -14.8530 8.9058 -2.3510 7.1250 -0.0000 -0.0000 8.6618 -20.8169 5.0755
-0.1733 18.1576 2.7352 0.6742 -4.2097 1.8159 0.0000 0.0000 0.0000 -22.4376 2.2722 2.0733 0.1231 2.2617 6.2296 0.1001 0.5266 -6.1902 0.1691 -2.6494 -7.3042 0.0000 0.0000 0.0000 22.7497 3.8711 -3.3665 -1.2734 -7.1520 20.1666 -0.4936 -3.3286 -14.9065 -0.0005 0.1377 -0.3783 -2.1346 -0.6407 4.8454 -0.0596 -1.0041 -2.0162 1.2251 -0.4330 -4.7701 -16.8307 -12.3764 -15.0739 13.5513 -17.2768 24.7930 4.9336 -7.7891 13.6606 -0.0000 -0.0000 0.0000 -89.7779 5.9535 20.3065 16.5811 -26.3023 -3.8999 -0.0000 -0.0000 4.5704 18.4297 24.4846 7.8632 -7.1250 0.0000 -0.0000 -11.8148 55.2311 -2.9985 -0.0000 -0.0000 0.0000 90.8787 -2.9264 21.3389 -15.1421 24.3436 -3.2843 0.0000 0.0000 8.8369 -14.9687 9.0082 -2.3971 7.1250 -0.0000 -0.0000 8.5760 -20.7067 5.0456
-0.1738 18.1577 2.7337 0.6520 -4.2001 1.8229 0.0000 0.0000 0.0000 -22.4146 2.2322 1.9928 0.1284 2.3101 6.3635 0.1015 0.5313 -6.2365 0.1781 -2.7180 -7.4946 0.0000 0.0000 0.0000 22.7778 3.8893 -3.3354 -1.2678 -7.1370 20.1217 -0.4880 -3.3580 -14.8523 -0.0000 0.0043 -0.0118 -2.1243 -0.6286 4.8961 -0.0459 -0.9886 -2.0651 1.2334 -0.4240 -4.8504 -16.8069 -12.3379 -15.0442 13.5181 -17.2377 24.9012 4.9301 -7.7743 13.6857 0.0000 0.0000 0.0000 -89.7560 6.0200 20.3866 16.5502 -26.2610 -3.8862 -0.0000 -0.0000 4.5124 18.3651 24.8613 7.9455 -7.1250 0.0000 -0.0000 -12.0597 55.5951 -3.1691 0.0000 0.0000 0.0000 90.8641 -3.0422 21.2944 -15.1442 24.3466 -3.2851 0.0000 0.0000 8.8539 -14.8453 8.9780 -2.3686 7.1250 -0.0000 -0.0000 8.6652 -20.7436 5.0920
-0.1729 18.1574 2.7353 0.6936 -4.1738 1.8109 0.0000 0.0000 0.0000 -22.4676 2.2030 1.9920 0.1307 2.3303 6.4193 0.1031 0.5127 -6.2731 0.1790 -2.7250 -7.5140 0.0000 0.0000 0.0000 22.7137 3.7550 -3.3573 -1.2645 -7.1278 20.0945 -0.4882 -3.2776 -14.8051 -0.0002 -0.0839 0.2304 -2.1513 -0.6254 4.9295 -0.0576 -0.9882 -2.1108 1.2373 -0.4220 -4.9169 -16.8375 -12.2919 -14.9198 13.5473 -17.1985 24.9457 4.9630 -7.7634 13.6779 0.0000 -0.0000 0.0000 -89.7336 6.1452 20.4807 16.5379 -26.2445 -3.8808 -0.0000 -0.0000 4.3985 18.5080 25.0923 8.0797 -7.1250 0.0000 -0.0000 -12.0235 55.8548 -3.2356 0.0000 -0.0000 0.0000 90.8645 -3.1752 21.2521 -15.1306 24.3277 -3.2795 0.0000 0.0000 8.8632 -14.8252 9.0022 -2.3716 7.1250 -0.0000 -0.0000 8.6789 -20.7200 5.1049
